# xmcd
# Track frame offsets:
# 150
# 14326
# 25262
# 36810
# 50192
# 63379
# 78643
# 91780
# 107015
# 121003
# 131627
# 145561
# 156830
# 171618
# 185411
# 199232
# 213175
# 226928
# 237854
# 250868
# 263034
# 276827
# 293998
# 306522
# 318177
#
# Disc length: 4432 seconds
# Revision: 0
# Processed by: cddbd v1.5.1PL2 Copyright (c) Steve Scherf et al.
# Submitted via: VisiTrax 2.10.0.248 - For more info visit www.synapsa.com
#
DISCID=66114e19
DTITLE=Nat King Cole - The Voice of Nat King Cole CD 1
DYEAR=2006
DGENRE=
TTITLE0=Sweet Lorraine
TTITLE1=Straighten Up and Fly Right
TTITLE2=What Can I Say After I Say I'm Sorry
TTITLE3=Vom, Vim, Veedle
TTITLE4=Gee Baby, Ain't I Good To You
TTITLE5=All For You
TTITLE6=It's only a Paper Moon
TTITLE7=Embraceable You
TTITLE8=I Can't See For Lookin'
TTITLE9=I'm an Errand Boy for Rhythm
TTITLE10=If You Can't Smile and Say Yes (Please Don't Cry and Say No)
TTITLE11=Katusha
TTITLE12=The Frim Fram Sauce
TTITLE13=Come To Baby, Do
TTITLE14=You Call It Madness (But I Call It Love)
TTITLE15=You Don't Learn That In School
TTITLE16=What'll I Do
TTITLE17=That's What
TTITLE18=(I Love You) For Sentimental Reasons
TTITLE19=Naughty Angeline
TTITLE20=That's the Beginning of the End
TTITLE21=Chant of the Blues
TTITLE22=I've Got a Way With Women
TTITLE23=Too Marvelous for Words
TTITLE24=THe Christmas Song
EXTD=3 CD set \nMCPS \nDEL80012
EXTT0=
EXTT1=
EXTT2=
EXTT3=
EXTT4=
EXTT5=
EXTT6=
EXTT7=
EXTT8=
EXTT9=
EXTT10=
EXTT11=
EXTT12=
EXTT13=
EXTT14=
EXTT15=
EXTT16=
EXTT17=
EXTT18=
EXTT19=
EXTT20=
EXTT21=
EXTT22=
EXTT23=
EXTT24=
PLAYORDER=
